External Loads File
version=1
nRows=62
nColumns=13
Range=5.000000e-03-10 seconds
endheader
time 	forceRightX 	forceRightY 	forceRightZ 	pointRightX 	pointRightY 	pointRightZ 	forceLeftX 	forceLeftY 	forceLeftZ 	pointLeftX 	pointLeftY 	pointLeftZ 		
7.505000 1.796231 247.752290 -0.000000 0.413814 0.436884 -0.133704 215.049572 343.526967 -0.000000 0.197493 0.177839 -0.377550
7.510000 6.695904 252.399920 -0.000000 0.419672 0.431931 -0.133181 186.846191 272.218754 -0.000000 0.191493 0.184398 -0.377710
7.515000 12.350980 258.815926 -0.000000 0.424993 0.426210 -0.132681 160.032907 207.344421 -0.000000 0.186000 0.191058 -0.377948
7.520000 18.346624 267.811620 -0.000000 0.429674 0.420227 -0.132009 135.453703 149.939181 -0.000000 0.181119 0.197868 -0.378369
7.525000 24.978547 280.110558 -0.000000 0.433718 0.413538 -0.131252 114.355272 100.033693 -0.000000 0.176835 0.204996 -0.378786
7.530000 32.122000 296.287731 -0.000000 0.437113 0.406247 -0.130563 97.296435 57.334658 -0.000000 0.172862 0.212329 -0.379025
7.535000 39.052942 316.767511 -0.000000 0.439863 0.398826 -0.130143 84.374137 21.208303 -0.000000 0.169279 0.219899 -0.379278
7.540000 45.964404 341.638715 -0.000000 0.442123 0.390836 -0.130006 75.362171 -9.525932 -0.000000 0.165832 0.227940 -0.378572
7.545000 51.577722 370.942163 -0.000000 0.443881 0.382436 -0.129863 69.550352 -35.655051 -0.000000 0.163038 0.236194 -0.378649
7.550000 55.783690 404.360609 -0.000000 0.445197 0.373536 -0.129668 66.036788 -58.025963 -0.000000 0.160576 0.244914 -0.378790
7.555000 58.071742 441.506698 -0.000000 0.446156 0.363962 -0.129600 63.894595 -77.025815 -0.000000 0.158569 0.253876 -0.378974
7.560000 57.878059 481.977846 -0.000000 0.446717 0.354177 -0.129574 62.415305 -92.706302 -0.000000 0.157050 0.263257 -0.379150
7.565000 55.275836 525.299200 -0.000000 0.447054 0.343998 -0.129546 61.111138 -105.009262 -0.000000 0.156102 0.272764 -0.379148
7.570000 50.684075 570.950764 -0.000000 0.446958 0.333474 -0.129908 59.778010 -113.856166 -0.000000 0.155719 0.282391 -0.379280
7.575000 44.192598 618.426339 -0.000000 0.446481 0.323014 -0.130077 58.569755 -119.221905 -0.000000 0.155887 0.292119 -0.379275
7.580000 36.898438 667.176978 -0.000000 0.444985 0.312517 -0.130345 57.610759 -121.393777 -0.000000 0.156635 0.301967 -0.379263
7.585000 30.317281 716.770009 -0.000000 0.443305 0.301844 -0.130828 56.991435 -120.930853 -0.000000 0.157925 0.311899 -0.379254
7.590000 25.388186 766.924036 -0.000000 0.441298 0.291087 -0.131134 56.827845 -118.548433 -0.000000 0.159743 0.321988 -0.379020
7.595000 22.774052 817.358130 -0.000000 0.438881 0.280258 -0.131610 57.102910 -115.047029 -0.000000 0.162083 0.332141 -0.378885
7.600000 23.197359 867.667252 -0.000000 0.435462 0.269514 -0.131498 57.589768 -111.144305 -0.000000 0.165177 0.342268 -0.378683
7.605000 26.638488 917.346766 -0.000000 0.431786 0.258970 -0.131641 58.021584 -107.239535 -0.000000 0.168852 0.352400 -0.378414
7.610000 34.319091 965.828906 -0.000000 0.427274 0.248624 -0.131545 57.976650 -103.504634 -0.000000 0.173057 0.362614 -0.378066
7.615000 43.382023 1012.750024 -0.000000 0.422549 0.238399 -0.131724 57.583265 -99.657241 -0.000000 0.177920 0.372038 -0.377777
7.620000 56.485683 1057.619765 -0.000000 0.417339 0.228608 -0.131977 56.515457 -95.697686 -0.000000 0.183346 0.381713 -0.377459
7.625000 71.914479 1100.104266 -0.000000 0.411551 0.219131 -0.132116 54.969098 -91.483659 -0.000000 0.189247 0.390893 -0.377020
7.630000 89.369681 1139.745323 -0.000000 0.405519 0.210062 -0.132489 52.971513 -87.155852 -0.000000 0.195700 0.399663 -0.376606
7.635000 110.275539 1175.855436 -0.000000 0.398724 0.201464 -0.132451 50.368780 -83.092638 -0.000000 0.202578 0.408084 -0.376247
7.640000 132.018055 1208.025460 -0.000000 0.391836 0.193403 -0.133057 47.208945 -79.548887 -0.000000 0.209931 0.415782 -0.375865
7.645000 157.847326 1235.184575 -0.000000 0.384492 0.185734 -0.133553 43.027041 -76.948737 -0.000000 0.217704 0.423395 -0.375664
7.650000 186.974508 1256.512658 -0.000000 0.376848 0.178392 -0.133906 37.603308 -75.346435 -0.000000 0.225980 0.430707 -0.375343
7.655000 217.341694 1271.339714 -0.000000 0.369042 0.171495 -0.134484 30.822665 -74.534361 -0.000000 0.234615 0.437525 -0.375098
7.660000 248.642465 1278.746068 -0.000000 0.360781 0.165216 -0.134943 22.568552 -74.159125 -0.000000 0.243420 0.443895 -0.374530
7.665000 281.014393 1277.753251 -0.000000 0.352284 0.159386 -0.135328 12.851617 -73.729204 -0.000000 0.252787 0.449689 -0.374480
7.670000 311.692097 1268.177482 -0.000000 0.343591 0.154230 -0.135657 1.989005 -72.691963 -0.000000 0.262304 0.454963 -0.374059
7.675000 340.474380 1249.552190 -0.000000 0.334685 0.149672 -0.135993 -9.779858 -70.610962 -0.000000 0.272134 0.459535 -0.374138
7.680000 365.466253 1222.076778 -0.000000 0.325573 0.145693 -0.136242 -22.124442 -67.186378 -0.000000 0.281984 0.463409 -0.373256
7.685000 387.002656 1185.574832 -0.000000 0.316230 0.142313 -0.136587 -34.892662 -62.274009 -0.000000 0.292106 0.466596 -0.373023
7.690000 403.356799 1140.715177 -0.000000 0.306892 0.139425 -0.136831 -47.876333 -55.975603 -0.000000 0.302432 0.469111 -0.372604
7.695000 413.707669 1088.169240 -0.000000 0.297607 0.137355 -0.137043 -60.951207 -48.620145 -0.000000 0.312887 0.470881 -0.372307
7.700000 416.017734 1029.353466 -0.000000 0.288866 0.135851 -0.136884 -73.977233 -40.840633 -0.000000 0.323322 0.471988 -0.372406
7.705000 415.276953 963.014868 -0.000000 0.279026 0.135103 -0.138102 -87.138959 -32.854383 -0.000000 0.333690 0.472496 -0.371860
7.710000 405.972287 892.302110 -0.000000 0.270052 0.134765 -0.138219 -100.232392 -25.586425 -0.000000 0.344052 0.472455 -0.371518
7.715000 390.417838 817.277158 -0.000000 0.261358 0.135118 -0.138327 -113.314607 -19.228371 -0.000000 0.354270 0.471728 -0.371286
7.720000 369.784152 738.492555 -0.000000 0.252702 0.136074 -0.138431 -126.276351 -13.815690 -0.000000 0.364366 0.470634 -0.370942
7.725000 344.565144 656.892861 -0.000000 0.244303 0.137666 -0.138692 -138.861046 -9.310799 -0.000000 0.374325 0.468920 -0.370600
7.730000 315.470409 573.438148 -0.000000 0.235970 0.139724 -0.139006 -150.715246 -5.566634 -0.000000 0.384026 0.466795 -0.370290
7.735000 283.090255 489.344764 -0.000000 0.228140 0.142479 -0.139151 -161.445420 -2.445109 -0.000000 0.393469 0.463895 -0.369781
7.740000 248.305931 405.921919 -0.000000 0.220694 0.145911 -0.139400 -170.696728 0.297521 -0.000000 0.402600 0.460412 -0.369491
7.745000 211.709496 324.925073 -0.000000 0.213691 0.149715 -0.139556 -178.221542 2.836602 -0.000000 0.411320 0.456411 -0.369148
7.750000 174.525567 247.932043 -0.000000 0.207135 0.154189 -0.139724 -183.933193 5.665050 -0.000000 0.419502 0.451768 -0.368811
7.755000 137.660941 176.792065 -0.000000 0.200967 0.158687 -0.139982 -187.936249 9.097685 -0.000000 0.427155 0.446773 -0.368584
7.760000 102.661488 112.724616 -0.000000 0.195290 0.163690 -0.140072 -190.510495 13.971784 -0.000000 0.434146 0.441074 -0.368424
7.765000 70.743798 56.685080 -0.000000 0.189900 0.168953 -0.140236 -192.117500 21.129143 -0.000000 0.440697 0.434905 -0.368522
7.770000 42.894179 9.107471 -0.000000 0.184927 0.174624 -0.140092 -193.416582 31.300279 -0.000000 0.446252 0.428351 -0.368400
7.775000 19.884901 -30.371074 -0.000000 0.180261 0.180654 -0.139820 -195.118665 45.892157 -0.000000 0.451149 0.421119 -0.368601
7.780000 1.878692 -62.487493 -0.000000 0.175833 0.187253 -0.139466 -197.962356 66.175357 -0.000000 0.455372 0.413472 -0.368835
7.785000 -11.467610 -88.243432 -0.000000 0.171805 0.194521 -0.139085 -202.549363 93.498891 -0.000000 0.458858 0.405326 -0.368947
7.790000 -21.058113 -108.561904 -0.000000 0.167989 0.202586 -0.139121 -209.009936 129.490749 -0.000000 0.461651 0.396352 -0.369521
7.795000 -27.565075 -124.173398 -0.000000 0.164164 0.211097 -0.139389 -217.564899 174.768281 -0.000000 0.463457 0.387275 -0.369825
7.800000 -31.812976 -135.415649 -0.000000 0.161231 0.220144 -0.139506 -227.937857 230.127726 -0.000000 0.464612 0.377818 -0.369953
7.805000 -34.128202 -142.320050 -0.000000 0.158743 0.229135 -0.139815 -240.066121 295.422992 -0.000000 0.464742 0.368104 -0.370207
7.810000 -34.807929 -144.682647 -0.000000 0.156852 0.238467 -0.139875 -253.281861 370.332939 -0.000000 0.464462 0.358384 -0.370267
